<?xml version="1.0" encoding="UTF-8"?>
<svg xmlns="http://www.w3.org/2000/svg" xmlns:xlink="http://www.w3.org/1999/xlink" width="48" height="48" viewBox="0 0 375.76063 375.76063" version="1.1">
<defs>
<clipPath id="clip1">
  <path d="M 0 0 L 48 0 L 48 48 L 0 48 Z M 0 0 "/>
</clipPath>
</defs>
<g id="surface1">
<g clip-path="url(#clip1)" clip-rule="nonzero">
<path style=" stroke:none;fill-rule:evenodd;fill:none;fill-opacity:1;" d="M 0 0 L 48 0 L 48 48 L 0 48 Z M 0 0 "/>
</g>
<path style=" stroke:none;fill-rule:evenodd;fill:black;fill-opacity:1;" d="M 155.339844 137.878906 L 158.484375 112.875 L 217.246094 112.875 L 220.394531 137.878906 Z M 117.554688 137.878906 L 123.988281 86.316406 C 124.78125 80.078125 130.109375 75.375 136.402344 75.375 L 239.328125 75.375 C 245.621094 75.375 250.949219 80.078125 251.746094 86.316406 L 258.179688 137.878906 L 310.960938 137.878906 C 318.558594 137.878906 324.398438 144.59375 323.320312 152.136719 L 301.890625 302.117188 C 301.011719 308.296875 295.738281 312.859375 289.53125 312.859375 L 92.097656 312.859375 C 86.03125 312.859375 80.84375 308.523438 79.796875 302.570312 L 53.007812 152.5625 C 51.617188 144.90625 57.515625 137.878906 65.308594 137.878906 Z M 248.710938 175.378906 L 95.160156 175.378906 L 113.015625 275.359375 L 267.847656 275.359375 L 282.132812 175.378906 Z M 248.710938 175.378906 "/>
</g>
</svg>
